<svg xmlns="http://www.w3.org/2000/svg" viewBox="0 0 531.38 48.95"><defs><style>.cls-1{fill:#0f0f0f;}</style></defs><g id="Layer_2" data-name="Layer 2"><g id="Layer_2-2" data-name="Layer 2"><polygon class="cls-1" points="434.06 42.99 448.36 42.99 448.36 39.9 437.4 39.9 437.4 33.18 447.34 33.18 447.34 30.13 437.4 30.13 437.4 23.94 448.36 23.94 448.36 20.88 434.06 20.88 434.06 42.99"/><path class="cls-1" d="M462.26,37.63a3.84,3.84,0,0,1-3.58,2.66c-2.56,0-3.1-1.84-3.1-3.38V26.84h-3.27V37.33c0,3.74,2.15,6,5.73,6a5.94,5.94,0,0,0,4.22-1.76V43h3.27V26.84h-3.27Z"/><path class="cls-1" d="M477.24,26.52a4.68,4.68,0,0,0-3.55,1.65V26.84h-3.23V43h3.23V32.3A3.47,3.47,0,0,1,477,29.65a3,3,0,0,1,1.58.37l.47.31V26.88l-.17-.08A4.1,4.1,0,0,0,477.24,26.52Z"/><path class="cls-1" d="M488.45,26.52c-4.38,0-7.44,3.45-7.44,8.39s3.06,8.4,7.44,8.4,7.45-3.45,7.45-8.4S492.84,26.52,488.45,26.52Zm0,13.87c-2.54,0-4.18-2.15-4.18-5.48s1.64-5.47,4.18-5.47,4.19,2.15,4.19,5.47S491,40.39,488.45,40.39Z"/><path class="cls-1" d="M507.05,26.52A5.9,5.9,0,0,0,503,28.16V26.84h-3.22V49H503V41.67a5.9,5.9,0,0,0,4.08,1.64c5.05,0,7.31-4.22,7.31-8.4S512.1,26.52,507.05,26.52Zm4.05,8.39c0,3.29-1.74,5.41-4.43,5.41A4.2,4.2,0,0,1,503,38V31.83a4.2,4.2,0,0,1,3.7-2.32C509.36,29.51,511.1,31.63,511.1,34.91Z"/><path class="cls-1" d="M531.38,34.46c0-4.9-2.62-7.94-6.85-7.94S517.16,30,517.16,35s3.06,8.36,7.44,8.36a6.22,6.22,0,0,0,6.57-5.22l.07-.36h-3.09l-.06.23a3.26,3.26,0,0,1-3.49,2.5c-2.44,0-4.07-1.85-4.21-4.75h11Zm-10.87-1.35c.44-2.35,1.94-3.74,4.06-3.74,2.44,0,3.42,1.88,3.54,3.74Z"/><path class="cls-1" d="M64.49,0,47.63,43H62l2-5.69H80.16l2,5.69H96.53L79.67,0Zm2.79,27,4.8-13.43L76.89,27Z"/><polygon class="cls-1" points="156.18 26.66 175.78 26.66 175.78 16.33 156.18 16.33 156.18 10.54 175.99 10.54 175.99 0 142.48 0 142.48 43 176.41 43 176.41 32.46 156.18 32.46 156.18 26.66"/><polygon class="cls-1" points="113.6 28.27 103.49 0 89.15 0 106.02 43 121.19 43 138.05 0 123.72 0 113.6 28.27"/><polygon class="cls-1" points="29.3 23.01 13.28 0 0 0 0 43 13.91 43 13.91 19.98 29.93 43 43.21 43 43.21 0 29.3 0 29.3 23.01"/><path class="cls-1" d="M213.17,28.25l1.31-.55c5-2.09,7.54-6.62,7.54-12.36,0-5.43-2-9.45-5.89-11.94C212.5,1.08,207.79,0,201.31,0H183.16V43h13.48V31h4.85l8.22,12H224ZM203.81,20h-7.38V11h7.38a4.53,4.53,0,1,1,0,9.06Z"/><path class="cls-1" d="M244.26,43h33.3l4.67-11.9h-24V0h-14Z"/><path class="cls-1" d="M300.55,0,283.69,43H298l2-5.69h16.16l2,5.69h14.33L315.73,0Zm2.78,27,4.81-13.43L313,27Z"/><path class="cls-1" d="M368,21a7.08,7.08,0,0,0,.79-.34c3.79-1.66,5.46-4.34,5.46-9.84a10.4,10.4,0,0,0-3.33-8C369,1,366,0,362,0H336.6V43h26.91c3.75,0,6.83-.8,8.61-2.58,2-2,3.26-4.67,3.26-8.91,0-7.15-3.35-8.49-6.07-9.91A14.08,14.08,0,0,0,368,21ZM349.8,10.1h7.65a3.24,3.24,0,0,1,2.42.73,3.47,3.47,0,0,1,.92,2.47c0,1.69-.6,3-1.83,3.41a4.22,4.22,0,0,1-.75.11H349.8ZM360.85,32a3.85,3.85,0,0,1-2.81.87H349.8V25.54h8.49a8.71,8.71,0,0,1,1.12,0c1.71.22,2.58,1.47,2.53,3.46A4,4,0,0,1,360.85,32Z"/><path class="cls-1" d="M409,20.07c5.45,2.23,7.9,6,7.9,11.08v1.14c0,5.91-5.4,10.71-11.31,10.71H380.42V31.53h22a1.29,1.29,0,0,0,1.29-1.29,1.18,1.18,0,0,0-.84-1.21l-15.69-6.37a11.66,11.66,0,0,1-7.43-10.91v-1A10.37,10.37,0,0,1,390,0h26.56l-4.5,11.47H393.42a1.1,1.1,0,0,0-.38,2.14Z"/></g></g></svg>